<mxfile host="app.diagrams.net" modified="2021-01-23T15:07:06.167Z" agent="5.0 (Windows NT 10.0; Win64; x64) AppleWebKit/537.36 (KHTML, like Gecko) Chrome/87.0.4280.141 Safari/537.36 OPR/73.0.3856.344" etag="aNmDIQmIisyvMiOdOibo" version="14.2.7" type="github">
  <diagram id="hMqZd6t-Wr05iG-IaIav" name="Страница 1">
    <mxGraphModel dx="2022" dy="1124" grid="1" gridSize="10" guides="1" tooltips="1" connect="1" arrows="1" fold="1" page="1" pageScale="1" pageWidth="827" pageHeight="1169" math="0" shadow="0">
      <root>
        <mxCell id="0" />
        <mxCell id="1" parent="0" />
        <mxCell id="IrXiWzMrz5V52EHvldZ--1" style="edgeStyle=orthogonalEdgeStyle;rounded=0;orthogonalLoop=1;jettySize=auto;html=1;" edge="1" parent="1" source="IrXiWzMrz5V52EHvldZ--2" target="IrXiWzMrz5V52EHvldZ--5">
          <mxGeometry relative="1" as="geometry" />
        </mxCell>
        <mxCell id="IrXiWzMrz5V52EHvldZ--2" value="Начало" style="ellipse;whiteSpace=wrap;html=1;" vertex="1" parent="1">
          <mxGeometry x="298" y="70" width="116" height="50" as="geometry" />
        </mxCell>
        <mxCell id="IrXiWzMrz5V52EHvldZ--3" value="Конецу" style="ellipse;whiteSpace=wrap;html=1;" vertex="1" parent="1">
          <mxGeometry x="637" y="1030" width="116" height="60" as="geometry" />
        </mxCell>
        <mxCell id="IrXiWzMrz5V52EHvldZ--4" style="edgeStyle=orthogonalEdgeStyle;rounded=0;orthogonalLoop=1;jettySize=auto;html=1;" edge="1" parent="1" source="IrXiWzMrz5V52EHvldZ--5" target="IrXiWzMrz5V52EHvldZ--7">
          <mxGeometry relative="1" as="geometry" />
        </mxCell>
        <mxCell id="IrXiWzMrz5V52EHvldZ--5" value="Вывод&lt;br&gt;&lt;pre style=&quot;background-color: #282a36 ; color: #f8f8f2 ; font-family: &amp;#34;jetbrains mono&amp;#34; , monospace ; font-size: 9 8pt&quot;&gt;&lt;span style=&quot;color: #f1fa8c&quot;&gt;Введите длину трех отрезков&lt;/span&gt;&lt;/pre&gt;" style="shape=parallelogram;perimeter=parallelogramPerimeter;whiteSpace=wrap;html=1;fixedSize=1;" vertex="1" parent="1">
          <mxGeometry x="234" y="160" width="244" height="60" as="geometry" />
        </mxCell>
        <mxCell id="IrXiWzMrz5V52EHvldZ--6" style="edgeStyle=orthogonalEdgeStyle;rounded=0;orthogonalLoop=1;jettySize=auto;html=1;" edge="1" parent="1" source="IrXiWzMrz5V52EHvldZ--7" target="IrXiWzMrz5V52EHvldZ--16">
          <mxGeometry relative="1" as="geometry" />
        </mxCell>
        <mxCell id="IrXiWzMrz5V52EHvldZ--7" value="Ввод&lt;br&gt;&lt;pre style=&quot;background-color: #282a36 ; color: #f8f8f2 ; font-family: &amp;#34;jetbrains mono&amp;#34; , monospace ; font-size: 9 8pt&quot;&gt;a, b, c&lt;/pre&gt;" style="shape=parallelogram;perimeter=parallelogramPerimeter;whiteSpace=wrap;html=1;fixedSize=1;" vertex="1" parent="1">
          <mxGeometry x="296" y="280" width="120" height="60" as="geometry" />
        </mxCell>
        <mxCell id="IrXiWzMrz5V52EHvldZ--19" value="Да" style="edgeStyle=orthogonalEdgeStyle;rounded=0;orthogonalLoop=1;jettySize=auto;html=1;entryX=1;entryY=0.5;entryDx=0;entryDy=0;" edge="1" parent="1" source="IrXiWzMrz5V52EHvldZ--16" target="IrXiWzMrz5V52EHvldZ--17">
          <mxGeometry x="-0.8357" y="15" relative="1" as="geometry">
            <mxPoint as="offset" />
          </mxGeometry>
        </mxCell>
        <mxCell id="IrXiWzMrz5V52EHvldZ--20" value="Нет" style="edgeStyle=orthogonalEdgeStyle;rounded=0;orthogonalLoop=1;jettySize=auto;html=1;" edge="1" parent="1" source="IrXiWzMrz5V52EHvldZ--16" target="IrXiWzMrz5V52EHvldZ--18">
          <mxGeometry x="-0.7164" relative="1" as="geometry">
            <Array as="points">
              <mxPoint x="160" y="485" />
            </Array>
            <mxPoint as="offset" />
          </mxGeometry>
        </mxCell>
        <mxCell id="IrXiWzMrz5V52EHvldZ--16" value="&lt;pre style=&quot;background-color: #282a36 ; color: #f8f8f2 ; font-family: &amp;#34;jetbrains mono&amp;#34; , monospace ; font-size: 9 8pt&quot;&gt;&lt;pre style=&quot;font-family: &amp;#34;jetbrains mono&amp;#34; , monospace&quot;&gt;a &lt;span style=&quot;color: #f998cc&quot;&gt;+ &lt;/span&gt;b &lt;span style=&quot;color: #f998cc&quot;&gt;&amp;lt;= &lt;/span&gt;c &lt;/pre&gt;&lt;pre style=&quot;font-family: &amp;#34;jetbrains mono&amp;#34; , monospace&quot;&gt;&lt;span style=&quot;color: #ff79c6&quot;&gt;or &lt;/span&gt;&lt;/pre&gt;&lt;pre style=&quot;font-family: &amp;#34;jetbrains mono&amp;#34; , monospace&quot;&gt;a &lt;span style=&quot;color: #f998cc&quot;&gt;+ &lt;/span&gt;c &lt;span style=&quot;color: #f998cc&quot;&gt;&amp;lt;= &lt;/span&gt;b&lt;/pre&gt;&lt;pre style=&quot;font-family: &amp;#34;jetbrains mono&amp;#34; , monospace&quot;&gt; &lt;span style=&quot;color: #ff79c6&quot;&gt;or &lt;/span&gt;&lt;/pre&gt;&lt;pre style=&quot;font-family: &amp;#34;jetbrains mono&amp;#34; , monospace&quot;&gt;b &lt;span style=&quot;color: #f998cc&quot;&gt;+ &lt;/span&gt;c &lt;span style=&quot;color: #f998cc&quot;&gt;&amp;lt;= &lt;/span&gt;a&lt;/pre&gt;&lt;/pre&gt;" style="rhombus;whiteSpace=wrap;html=1;" vertex="1" parent="1">
          <mxGeometry x="219" y="400" width="274" height="170" as="geometry" />
        </mxCell>
        <mxCell id="IrXiWzMrz5V52EHvldZ--29" style="edgeStyle=orthogonalEdgeStyle;rounded=0;orthogonalLoop=1;jettySize=auto;html=1;" edge="1" parent="1" source="IrXiWzMrz5V52EHvldZ--17" target="IrXiWzMrz5V52EHvldZ--3">
          <mxGeometry relative="1" as="geometry" />
        </mxCell>
        <mxCell id="IrXiWzMrz5V52EHvldZ--17" value="Вывод&lt;br&gt;&lt;pre style=&quot;background-color: #282a36 ; color: #f8f8f2 ; font-family: &amp;#34;jetbrains mono&amp;#34; , monospace ; font-size: 9 8pt&quot;&gt;&lt;span style=&quot;color: #f1fa8c&quot;&gt;Треугольник не существует&lt;/span&gt;&lt;/pre&gt;" style="shape=parallelogram;perimeter=parallelogramPerimeter;whiteSpace=wrap;html=1;fixedSize=1;" vertex="1" parent="1">
          <mxGeometry x="590" y="455" width="210" height="60" as="geometry" />
        </mxCell>
        <mxCell id="IrXiWzMrz5V52EHvldZ--22" value="Да" style="edgeStyle=orthogonalEdgeStyle;rounded=0;orthogonalLoop=1;jettySize=auto;html=1;" edge="1" parent="1" source="IrXiWzMrz5V52EHvldZ--18" target="IrXiWzMrz5V52EHvldZ--21">
          <mxGeometry x="-0.5062" relative="1" as="geometry">
            <mxPoint as="offset" />
          </mxGeometry>
        </mxCell>
        <mxCell id="IrXiWzMrz5V52EHvldZ--24" value="Нет" style="edgeStyle=orthogonalEdgeStyle;rounded=0;orthogonalLoop=1;jettySize=auto;html=1;" edge="1" parent="1" source="IrXiWzMrz5V52EHvldZ--18" target="IrXiWzMrz5V52EHvldZ--23">
          <mxGeometry relative="1" as="geometry" />
        </mxCell>
        <mxCell id="IrXiWzMrz5V52EHvldZ--18" value="&lt;pre style=&quot;background-color: #282a36 ; color: #f8f8f2 ; font-family: &amp;#34;jetbrains mono&amp;#34; , monospace ; font-size: 9 8pt&quot;&gt;a &lt;span style=&quot;color: #f998cc&quot;&gt;!= &lt;/span&gt;b &lt;/pre&gt;&lt;pre style=&quot;background-color: #282a36 ; color: #f8f8f2 ; font-family: &amp;#34;jetbrains mono&amp;#34; , monospace ; font-size: 9 8pt&quot;&gt;&lt;span style=&quot;color: #ff79c6&quot;&gt;and &lt;/span&gt;&lt;/pre&gt;&lt;pre style=&quot;background-color: #282a36 ; color: #f8f8f2 ; font-family: &amp;#34;jetbrains mono&amp;#34; , monospace ; font-size: 9 8pt&quot;&gt;a &lt;span style=&quot;color: #f998cc&quot;&gt;!= &lt;/span&gt;c &lt;/pre&gt;&lt;pre style=&quot;background-color: #282a36 ; color: #f8f8f2 ; font-family: &amp;#34;jetbrains mono&amp;#34; , monospace ; font-size: 9 8pt&quot;&gt;&lt;span style=&quot;color: rgb(255 , 121 , 198) ; white-space: normal&quot;&gt;and&amp;nbsp;&lt;/span&gt;&lt;br&gt;&lt;/pre&gt;&lt;pre style=&quot;background-color: #282a36 ; color: #f8f8f2 ; font-family: &amp;#34;jetbrains mono&amp;#34; , monospace ; font-size: 9 8pt&quot;&gt;b &lt;span style=&quot;color: #f998cc&quot;&gt;!= &lt;/span&gt;c&lt;/pre&gt;" style="rhombus;whiteSpace=wrap;html=1;" vertex="1" parent="1">
          <mxGeometry x="40" y="560" width="240" height="145" as="geometry" />
        </mxCell>
        <mxCell id="IrXiWzMrz5V52EHvldZ--30" style="edgeStyle=orthogonalEdgeStyle;rounded=0;orthogonalLoop=1;jettySize=auto;html=1;" edge="1" parent="1" source="IrXiWzMrz5V52EHvldZ--21" target="IrXiWzMrz5V52EHvldZ--3">
          <mxGeometry relative="1" as="geometry" />
        </mxCell>
        <mxCell id="IrXiWzMrz5V52EHvldZ--21" value="Вывод&lt;br&gt;&lt;pre style=&quot;background-color: #282a36 ; color: #f8f8f2 ; font-family: &amp;#34;jetbrains mono&amp;#34; , monospace ; font-size: 9 8pt&quot;&gt;&lt;pre style=&quot;font-family: &amp;#34;jetbrains mono&amp;#34; , monospace&quot;&gt;&lt;span style=&quot;color: #f1fa8c&quot;&gt;Разносторонний&lt;/span&gt;&lt;/pre&gt;&lt;/pre&gt;" style="shape=parallelogram;perimeter=parallelogramPerimeter;whiteSpace=wrap;html=1;fixedSize=1;" vertex="1" parent="1">
          <mxGeometry x="351" y="602.5" width="210" height="60" as="geometry" />
        </mxCell>
        <mxCell id="IrXiWzMrz5V52EHvldZ--26" value="Да" style="edgeStyle=orthogonalEdgeStyle;rounded=0;orthogonalLoop=1;jettySize=auto;html=1;" edge="1" parent="1" source="IrXiWzMrz5V52EHvldZ--23" target="IrXiWzMrz5V52EHvldZ--25">
          <mxGeometry x="-0.6296" relative="1" as="geometry">
            <Array as="points">
              <mxPoint x="240" y="800" />
              <mxPoint x="240" y="800" />
            </Array>
            <mxPoint as="offset" />
          </mxGeometry>
        </mxCell>
        <mxCell id="IrXiWzMrz5V52EHvldZ--28" value="Нет" style="edgeStyle=orthogonalEdgeStyle;rounded=0;orthogonalLoop=1;jettySize=auto;html=1;" edge="1" parent="1" source="IrXiWzMrz5V52EHvldZ--23" target="IrXiWzMrz5V52EHvldZ--27">
          <mxGeometry relative="1" as="geometry" />
        </mxCell>
        <mxCell id="IrXiWzMrz5V52EHvldZ--23" value="&lt;pre style=&quot;background-color: #282a36 ; color: #f8f8f2 ; font-family: &amp;#34;jetbrains mono&amp;#34; , monospace ; font-size: 9 8pt&quot;&gt;a &lt;span style=&quot;color: #f998cc&quot;&gt;== &lt;/span&gt;b &lt;span style=&quot;color: #f998cc&quot;&gt;== &lt;/span&gt;c&lt;/pre&gt;" style="rhombus;whiteSpace=wrap;html=1;" vertex="1" parent="1">
          <mxGeometry x="105" y="760" width="110" height="80" as="geometry" />
        </mxCell>
        <mxCell id="IrXiWzMrz5V52EHvldZ--31" style="edgeStyle=orthogonalEdgeStyle;rounded=0;orthogonalLoop=1;jettySize=auto;html=1;" edge="1" parent="1" source="IrXiWzMrz5V52EHvldZ--25" target="IrXiWzMrz5V52EHvldZ--3">
          <mxGeometry relative="1" as="geometry" />
        </mxCell>
        <mxCell id="IrXiWzMrz5V52EHvldZ--25" value="Вывод&lt;br&gt;&lt;pre style=&quot;background-color: #282a36 ; color: #f8f8f2 ; font-family: &amp;#34;jetbrains mono&amp;#34; , monospace ; font-size: 9 8pt&quot;&gt;&lt;pre style=&quot;font-family: &amp;#34;jetbrains mono&amp;#34; , monospace&quot;&gt;&lt;span style=&quot;color: #f1fa8c&quot;&gt;Разносторонний&lt;/span&gt;&lt;/pre&gt;&lt;/pre&gt;" style="shape=parallelogram;perimeter=parallelogramPerimeter;whiteSpace=wrap;html=1;fixedSize=1;" vertex="1" parent="1">
          <mxGeometry x="340" y="770" width="210" height="60" as="geometry" />
        </mxCell>
        <mxCell id="IrXiWzMrz5V52EHvldZ--32" style="edgeStyle=orthogonalEdgeStyle;rounded=0;orthogonalLoop=1;jettySize=auto;html=1;" edge="1" parent="1" source="IrXiWzMrz5V52EHvldZ--27" target="IrXiWzMrz5V52EHvldZ--3">
          <mxGeometry relative="1" as="geometry" />
        </mxCell>
        <mxCell id="IrXiWzMrz5V52EHvldZ--27" value="&lt;pre style=&quot;background-color: #282a36 ; color: #f8f8f2 ; font-family: &amp;#34;jetbrains mono&amp;#34; , monospace ; font-size: 9 8pt&quot;&gt;&lt;span style=&quot;color: rgb(240 , 240 , 240) ; font-family: &amp;#34;helvetica&amp;#34; ; background-color: rgb(42 , 42 , 42)&quot;&gt;Вывод&lt;/span&gt;&lt;br style=&quot;color: rgb(240 , 240 , 240) ; font-family: &amp;#34;helvetica&amp;#34; ; background-color: rgb(42 , 42 , 42)&quot;&gt;&lt;pre style=&quot;font-family: &amp;#34;jetbrains mono&amp;#34; , monospace&quot;&gt;&lt;pre style=&quot;font-family: &amp;#34;jetbrains mono&amp;#34; , monospace&quot;&gt;&lt;span style=&quot;color: #f1fa8c&quot;&gt;Равнобедренный&lt;/span&gt;&lt;/pre&gt;&lt;/pre&gt;&lt;/pre&gt;" style="shape=parallelogram;perimeter=parallelogramPerimeter;whiteSpace=wrap;html=1;fixedSize=1;" vertex="1" parent="1">
          <mxGeometry x="100" y="910" width="120" height="60" as="geometry" />
        </mxCell>
      </root>
    </mxGraphModel>
  </diagram>
</mxfile>
